<?xml version="1.0" encoding="UTF-8" standalone="no"?>
<svg
   xmlns:dc="http://purl.org/dc/elements/1.1/"
   xmlns:cc="http://creativecommons.org/ns#"
   xmlns:rdf="http://www.w3.org/1999/02/22-rdf-syntax-ns#"
   xmlns:svg="http://www.w3.org/2000/svg"
   xmlns="http://www.w3.org/2000/svg"
   xmlns:sodipodi="http://sodipodi.sourceforge.net/DTD/sodipodi-0.dtd"
   xmlns:inkscape="http://www.inkscape.org/namespaces/inkscape"
   width="210mm"
   height="297mm"
   viewBox="0 0 210 297"
   version="1.1"
   id="svg8"
   inkscape:version="1.0.1 (3bc2e813f5, 2020-09-07)"
   sodipodi:docname="indice.svg">
  <defs
     id="defs2" />
  <sodipodi:namedview
     id="base"
     pagecolor="#ffffff"
     bordercolor="#666666"
     borderopacity="1.0"
     inkscape:pageopacity="0.0"
     inkscape:pageshadow="2"
     inkscape:zoom="2.8"
     inkscape:cx="344.09172"
     inkscape:cy="335.82026"
     inkscape:document-units="mm"
     inkscape:current-layer="layer2"
     inkscape:document-rotation="0"
     showgrid="false"
     inkscape:window-width="1816"
     inkscape:window-height="1030"
     inkscape:window-x="86"
     inkscape:window-y="0"
     inkscape:window-maximized="0" />
  <metadata
     id="metadata5">
    <rdf:RDF>
      <cc:Work
         rdf:about="">
        <dc:format>image/svg+xml</dc:format>
        <dc:type
           rdf:resource="http://purl.org/dc/dcmitype/StillImage" />
        <dc:title></dc:title>
      </cc:Work>
    </rdf:RDF>
  </metadata>
  <g
     inkscape:label="Calque 1"
     inkscape:groupmode="layer"
     id="layer1"
     style="display:inline">
    <path
       style="fill:#a5ffb4;fill-opacity:0.903803;stroke:#000000;stroke-width:0.92555;stroke-linecap:round;stroke-opacity:0.00223712;paint-order:markers fill stroke"
       d="m 68.708352,93.689788 c 0,0 0.808141,3.771335 0.808141,5.926379 0,2.155063 4.13051,2.873413 3.950924,0 -0.179589,-2.873392 -1.077525,-7.003902 -1.885668,-7.722251 -0.808143,-0.718352 -3.232571,-1.885668 -3.232571,-0.179589 0,1.706082 0.359174,1.975461 0.359174,1.975461 z"
       id="path835" />
    <path
       style="fill:#a5ffb4;fill-opacity:0.903803;stroke:#000000;stroke-width:1.09292;stroke-linecap:round;stroke-opacity:0.00223712;paint-order:markers fill stroke"
       d="m 75.779766,91.691247 c 0,0 0.334518,4.542101 -0.01448,7.062804 -0.348993,2.520709 4.36603,4.029839 4.621295,0.639816 0.255265,-3.390015 -0.126135,-8.366775 -0.95507,-9.337881 -0.828923,-0.971106 -3.475671,-2.729102 -3.751964,-0.733547 -0.276282,1.995557 0.100203,2.368808 0.100203,2.368808 z"
       id="path835-6" />
    <path
       style="fill:#a5ffb4;fill-opacity:0.903803;stroke:#000000;stroke-width:1.09292;stroke-linecap:round;stroke-opacity:0.00223712;paint-order:markers fill stroke"
       d="m 80.207612,92.933924 c 0,0 1.882053,1.59047 2.518235,3.923153 0.636193,2.33268 -0.132542,3.923153 1.669999,3.923153 5.280312,-2.601795 0.06396,-10.635614 0.344595,-14.420231 0,0 -0.106038,-1.696499 -1.80253,-0.742218 -1.696492,0.954278 -0.530155,6.255833 -0.530155,6.255833 l 0.530155,2.226653 c 0,0 -1.166337,-3.154424 -2.624261,-4.267751 -1.252761,-0.956663 -3.684594,-1.484435 -3.684594,-1.484435 0,0 2.783329,0.901262 3.286969,2.783316"
       id="path852"
       sodipodi:nodetypes="csccsccscc" />
    <path
       style="fill:#a5ffb4;fill-opacity:0.903803;stroke:#000000;stroke-width:1.02516;stroke-linecap:round;stroke-opacity:0.00223712;paint-order:markers fill stroke"
       d="m 95.196501,85.255917 c 0,0 1.15697,3.847311 1.11069,6.038143 -0.0464,2.190832 -1.11069,6.305319 -0.6479,7.480888 0.46278,1.175568 2.36023,0.748088 2.36023,0.748088 0,0 1.66604,-3.687009 1.06441,-7.534322 -0.60163,-3.847315 -1.66604,-7.213714 -2.73046,-7.694627 -1.06442,-0.480913 -1.15697,0.96183 -1.15697,0.96183 z"
       id="path854" />
    <path
       style="fill:#a5ffb4;fill-opacity:0.903803;stroke:#000000;stroke-width:0.935955;stroke-linecap:round;stroke-opacity:0.00223712;paint-order:markers fill stroke"
       d="m 95.950321,94.943592 c -0.26177,1.700892 -0.4799,3.307291 -0.0873,3.496278 0.39265,0.188989 -0.82826,1.88686 -2.38186,0.778882 -1.78875,-1.27567 -2.65417,-1.692732 -2.7977,-3.524941 -0.2087,-2.664012 0.0314,-4.860712 1.95108,-5.049701 0.20648,-0.394753 4.87451,0.05589 3.09766,0.614213 -0.78531,0.236236 1.74508,-0.708704 -0.56716,-0.236239 -1.82797,0.373512 -2.77416,0.397271 -3.02253,3.823243 -0.25355,3.497452 2.63969,2.755556 2.63969,2.755556 0,0 0.9686,-4.85484 0.38284,-6.578799 2.19579,-1.726459 0.94902,2.855845 0.78528,3.921508 z"
       id="path858"
       sodipodi:nodetypes="csssccssccc" />
    <path
       style="fill:#a5ffb4;fill-opacity:0.903803;stroke:#000000;stroke-width:0.851317;stroke-linecap:round;stroke-opacity:0.00223712;paint-order:markers fill stroke"
       d="m 99.909311,92.392644 c 0,0 0.743319,3.468853 0.743319,5.451056 0,1.982206 3.79922,2.64294 3.63404,0 -0.16519,-2.642936 -0.99111,-6.442156 -1.73443,-7.102889 -0.74332,-0.660736 -2.973299,-1.734427 -2.973299,-0.165184 0,1.569244 0.33037,1.817017 0.33037,1.817017 z"
       id="path835-69" />
    <path
       style="fill:#a5ffb4;fill-opacity:0.903803;stroke:#000000;stroke-width:1.09292;stroke-linecap:round;stroke-opacity:0.00223712;paint-order:markers fill stroke"
       d="m 66.736362,86.91136 c 0.636188,2.014589 1.166342,2.067608 2.385701,2.226653 1.219357,0.159046 2.067606,-1.696499 1.431418,-2.385698 -0.636185,-0.689203 -2.597762,-1.219361 -3.233947,-0.795237 -0.636187,0.424128 -0.583172,0.954282 -0.583172,0.954282 z"
       id="path875" />
    <path
       style="fill:#a5ffb4;fill-opacity:0.903803;stroke:#000000;stroke-width:0.974;stroke-linecap:round;stroke-opacity:0.00223712;paint-order:markers fill stroke"
       d="m 99.215071,86.568422 c 0.56696,1.795385 1.039429,1.842635 2.126119,1.984375 1.08668,0.14174 1.84263,-1.511906 1.27566,-2.126115 -0.56696,-0.614212 -2.3151,-1.086684 -2.882059,-0.708708 -0.56697,0.377979 -0.51972,0.850448 -0.51972,0.850448 z"
       id="path875-0" />
    <path
       style="fill:#a5ffb4;fill-opacity:0.903803;stroke:#000000;stroke-width:0.974;stroke-linecap:round;stroke-opacity:0.00223712;paint-order:markers fill stroke"
       d="m 111.21855,90.407877 c -1.93712,-1.700892 -4.48846,-3.260045 -5.62239,-1.606399 -1.13393,1.653646 -0.47247,9.402159 0.8032,10.016368 1.27567,0.614212 4.11049,1.08668 5.00818,0.425225 0.89769,-0.661458 1.46466,-1.370163 1.46466,-2.267857 0,-0.897694 -0.66146,-2.031622 -1.32292,-1.370164 -0.66146,0.661459 -0.37797,2.362351 -1.27566,2.551338 -0.8977,0.188989 -2.31512,0.0945 -3.3073,-1.464657 -0.9356,-1.59889 -1.42137,-5.89079 0.23624,-6.850819 1.18117,0.141743 1.70089,0.236235 2.74032,0.992189 1.03943,0.755952 1.65365,1.984374 2.03163,0.944939 0.37797,-1.039434 -0.75596,-1.370163 -0.75596,-1.370163 z"
       id="path892"
       sodipodi:nodetypes="cssssssccssc" />
    <path
       style="fill:#a5ffb4;fill-opacity:0.903803;stroke:#000000;stroke-width:0.974;stroke-linecap:round;stroke-opacity:0.00223712;paint-order:markers fill stroke"
       d="m 115.84876,93.762415 c 2.74033,-0.04725 4.34673,0.04725 5.05543,-1.322916 0.70871,-1.370164 -1.34073,-4.603317 -4.06562,-4.007892 -4.17788,0.912925 -4.06086,7.598666 -3.30491,9.252312 0.75595,1.653645 3.33091,1.842633 5.5279,1.653646 1.39085,-0.119642 2.26757,-0.150932 2.36571,-1.915183 0.0997,-1.791853 -2.55668,-2.112166 -2.68457,-0.01957 0.0322,1.738686 2.2847,1.356183 -0.75636,0.613227 -3.86325,-1.070475 -4.1938,-8.225335 0.17277,-8.271995 1.49931,0.624365 1.5511,2.087601 1.0442,2.648208 -0.47247,0.472469 -3.12632,0.425831 -3.6144,0.354352 -1.46326,-0.214293 -1.08354,0.740358 -0.63783,0.874071 0.47246,0.14174 0.89769,0.14174 0.89769,0.14174 z"
       id="path894"
       sodipodi:nodetypes="ssssssccccsscs" />
  </g>
  <g
     inkscape:groupmode="layer"
     id="layer2"
     inkscape:label="Calque 2"
     style="display:none">
    <path
       style="display:inline;fill:#5000c3;fill-opacity:0.975392;stroke:#000000;stroke-width:0.974;stroke-linecap:round;stroke-opacity:0.00223712;paint-order:markers fill stroke"
       d="m 85.54369,103.62858 c 0,0 -13.32366,9.92188 -22.773067,-1.03943 C 50.870637,85.150163 75.05043,73.696834 83.89144,81.286882 c 9.14021,5.469191 5.24302,17.711493 5.24302,17.711493 l 17.95388,11.244805 c 0,0 5.19717,1.32291 0.75595,6.42559 -3.4741,3.99153 -22.3006,-13.04019 -22.3006,-13.04019 v 0 l 0.66146,-6.331098 c 0,0 3.33693,-8.689518 -3.15548,-13.40669 -5.6218,-4.084615 -13.648179,-2.571906 -16.96504,1.436406 -4.838324,5.846947 -4.178094,11.138193 0.734991,16.307512 5.049294,5.31263 16.527479,2.98133 19.385529,-4.337228"
       id="path833"
       sodipodi:nodetypes="cccccscccsssc" />
    <path
       style="display:inline;fill:#5000c3;fill-opacity:0.975392;stroke:#000000;stroke-width:0.794975;stroke-linecap:round;stroke-opacity:0.00223712;paint-order:markers fill stroke"
       d="m 84.691046,99.496903 c 0,0 -10.306773,9.334317 -18.019342,0.38774 -9.712722,-14.233633 9.020471,-22.17863 16.236469,-15.983662 7.460207,4.463932 2.384229,15.261835 2.384229,15.261835 -4.005883,5.182544 5.063328,-8.346081 0,0 v 0 C 88.4027,91.728868 87.65706,86.971961 82.655436,83.119726 78.066945,79.785879 69.544733,81.588494 66.837524,84.860063 c -3.949021,4.772255 -3.51037,12.197956 0.499671,16.417127 4.121214,4.33615 17.064393,1.4645 19.397122,-4.508875"
       id="path833-4"
       sodipodi:nodetypes="cccccccssc" />
  </g>
  <g
     inkscape:groupmode="layer"
     id="layer3"
     inkscape:label="Calque 3"
     style="display:inline" />
</svg>
