<?xml version="1.0" encoding="UTF-8" standalone="no"?>
<svg
   xmlns:dc="http://purl.org/dc/elements/1.1/"
   xmlns:cc="http://creativecommons.org/ns#"
   xmlns:rdf="http://www.w3.org/1999/02/22-rdf-syntax-ns#"
   xmlns:svg="http://www.w3.org/2000/svg"
   xmlns="http://www.w3.org/2000/svg"
   xmlns:sodipodi="http://sodipodi.sourceforge.net/DTD/sodipodi-0.dtd"
   xmlns:inkscape="http://www.inkscape.org/namespaces/inkscape"
   width="74mm"
   height="105mm"
   viewBox="0 0 74 105"
   version="1.1"
   id="svg8"
   inkscape:version="1.0.1 (3bc2e813f5, 2020-09-07)"
   sodipodi:docname="indice_loupe.svg">
  <defs
     id="defs2" />
  <sodipodi:namedview
     id="base"
     pagecolor="#ffffff"
     bordercolor="#666666"
     borderopacity="1.0"
     inkscape:pageopacity="0.0"
     inkscape:pageshadow="2"
     inkscape:zoom="0.98994949"
     inkscape:cx="344.09172"
     inkscape:cy="323.98559"
     inkscape:document-units="mm"
     inkscape:current-layer="layer2"
     inkscape:document-rotation="0"
     showgrid="false"
     inkscape:window-width="1816"
     inkscape:window-height="1030"
     inkscape:window-x="86"
     inkscape:window-y="0"
     inkscape:window-maximized="0"
     units="mm" />
  <metadata
     id="metadata5">
    <rdf:RDF>
      <cc:Work
         rdf:about="">
        <dc:format>image/svg+xml</dc:format>
        <dc:type
           rdf:resource="http://purl.org/dc/dcmitype/StillImage" />
        <dc:title></dc:title>
      </cc:Work>
    </rdf:RDF>
  </metadata>
  <g
     inkscape:label="Calque 1"
     inkscape:groupmode="layer"
     id="layer1"
     style="display:inline">
    <path
       style="fill:#a5ffb4;fill-opacity:0.903803;stroke:#000000;stroke-width:1.32887;stroke-linecap:round;stroke-opacity:0.00223712;paint-order:markers fill stroke"
       d="m 42.809933,18.782766 c 0,0 -5.471199,0.855278 -8.560467,0.682024 -3.089296,-0.173256 -4.451127,5.690101 -0.317635,5.663672 4.133462,-0.02643 10.126761,-0.981559 11.22149,-2.082286 1.094731,-1.100726 2.962997,-4.482311 0.517324,-4.619471 -2.445678,-0.137158 -2.860712,0.356061 -2.860712,0.356061 z"
       id="path835" />
    <path
       style="fill:#a5ffb4;fill-opacity:0.903803;stroke:#000000;stroke-width:1.56917;stroke-linecap:round;stroke-opacity:0.00223712;paint-order:markers fill stroke"
       d="m 45.106348,29.080351 c 0,0 -6.538021,0.114372 -10.123405,-0.588571 -3.585395,-0.702936 -6.127805,5.93475 -1.28871,6.573215 4.839085,0.638464 12.003961,0.49183 13.462688,-0.61838 1.458728,-1.110194 4.191611,-4.762989 1.353184,-5.319489 -2.838431,-0.556484 -3.403755,-0.0468 -3.403755,-0.0468 z"
       id="path835-6" />
    <path
       style="fill:#a5ffb4;fill-opacity:0.903803;stroke:#000000;stroke-width:1.56917;stroke-linecap:round;stroke-opacity:0.00223712;paint-order:markers fill stroke"
       d="m 42.968987,35.327789 c 0,0 -2.431256,2.570068 -5.826316,3.294502 -3.395056,0.724451 -5.613207,-0.505401 -5.758122,2.078552 3.305179,7.778528 15.241071,0.946736 20.64378,1.653292 0,0 2.440466,-0.01562 1.208888,-2.524266 -1.231573,-2.50865 -8.92515,-1.262917 -8.92515,-1.262917 l -3.234541,0.580968 c 0,0 4.615651,-1.418352 6.328823,-3.418788 1.472097,-1.718928 2.424168,-5.162546 2.424168,-5.162546 0,0 -1.51573,3.917462 -4.254156,4.488125"
       id="path852"
       sodipodi:nodetypes="csccsccscc" />
    <path
       style="fill:#a5ffb4;fill-opacity:0.903803;stroke:#000000;stroke-width:1.47188;stroke-linecap:round;stroke-opacity:0.00223712;paint-order:markers fill stroke"
       d="m 52.770423,57.431719 c 0,0 -5.608156,1.349219 -8.745007,1.106744 -3.136839,-0.242646 -8.949416,-2.099096 -10.671808,-1.530194 -1.722388,0.568889 -1.262137,3.323261 -1.262137,3.323261 0,0 5.151406,2.684696 10.714919,2.13156 5.563516,-0.553136 10.474842,-1.808332 11.249807,-3.29552 0.774966,-1.487191 -1.285774,-1.735851 -1.285774,-1.735851 z"
       id="path854" />
    <path
       style="fill:#a5ffb4;fill-opacity:0.903803;stroke:#000000;stroke-width:1.34381;stroke-linecap:round;stroke-opacity:0.00223712;paint-order:markers fill stroke"
       d="m 38.822482,57.733485 c -2.417194,-0.511993 -4.702439,-0.953829 -5.004916,-0.406229 -0.302484,0.547673 -2.638237,-1.339008 -0.925043,-3.477028 1.972488,-2.461626 2.639923,-3.668681 5.277945,-3.72713 3.835655,-0.085 6.965334,0.435788 7.081919,3.202853 0.549281,0.327726 -0.472006,6.983145 -1.129514,4.391135 -0.275511,-1.144739 0.875634,2.558557 0.384246,-0.794035 -0.388472,-2.650434 -0.346462,-4.008713 -5.237645,-4.640184 -4.993233,-0.644642 -4.162322,3.562478 -4.162322,3.562478 0,0 6.881569,1.778799 9.399967,1.077706 2.298359,3.286476 -4.170167,1.130829 -5.684637,0.810434 z"
       id="path858"
       sodipodi:nodetypes="csssccssccc" />
    <path
       style="fill:#a5ffb4;fill-opacity:0.903803;stroke:#000000;stroke-width:1.22229;stroke-linecap:round;stroke-opacity:0.00223712;paint-order:markers fill stroke"
       d="m 42.160998,63.613803 c 0,0 -5.03238,0.786673 -7.87388,0.627314 -2.841503,-0.159359 -4.094106,5.233726 -0.292158,5.209418 3.801944,-0.02432 9.314548,-0.902846 10.321472,-1.91528 1.006928,-1.012433 2.725349,-4.122801 0.47583,-4.24896 -2.24952,-0.12616 -2.631264,0.327508 -2.631264,0.327508 z"
       id="path835-69" />
    <path
       style="fill:#a5ffb4;fill-opacity:0.903803;stroke:#000000;stroke-width:1.56917;stroke-linecap:round;stroke-opacity:0.00223712;paint-order:markers fill stroke"
       d="m 52.685386,16.500858 c -2.93907,0.750017 -3.057695,1.505733 -3.383717,3.240904 -0.326024,1.73517 2.265715,3.100316 3.304833,2.243744 1.039122,-0.856566 1.956807,-3.625875 1.39997,-4.571948 -0.556844,-0.946076 -1.321086,-0.9127 -1.321086,-0.9127 z"
       id="path875" />
    <path
       style="fill:#a5ffb4;fill-opacity:0.903803;stroke:#000000;stroke-width:1.39843;stroke-linecap:round;stroke-opacity:0.00223712;paint-order:markers fill stroke"
       d="m 50.565867,63.086844 c -2.619276,0.6684 -2.724993,1.341888 -3.015542,2.88827 -0.290549,1.546367 2.019187,2.762971 2.945241,1.999595 0.926057,-0.763361 1.74389,-3.231346 1.24764,-4.074472 -0.496254,-0.843142 -1.177339,-0.813393 -1.177339,-0.813393 z"
       id="path875-0" />
    <path
       style="fill:#a5ffb4;fill-opacity:0.903803;stroke:#000000;stroke-width:1.39843;stroke-linecap:round;stroke-opacity:0.00223712;paint-order:markers fill stroke"
       d="m 44.096967,79.985227 c 2.593973,-2.64013 5.034142,-6.172143 2.754794,-7.930582 -2.279348,-1.758439 -13.440065,-1.433174 -14.423094,0.346127 -0.983034,1.7793 -1.888225,5.805046 -1.012195,7.145068 0.876035,1.340022 1.846385,2.209753 3.133235,2.281923 1.28685,0.07218 2.96552,-0.784875 2.070494,-1.786259 -0.895027,-1.001385 -3.356056,-0.731744 -3.554801,-2.033782 -0.198746,-1.30205 0.05065,-3.326334 2.365485,-4.623281 2.367235,-1.212646 8.558752,-1.563953 9.801695,0.889422 -0.298149,1.681819 -0.475386,2.419243 -1.642616,3.848497 -1.167227,1.429255 -2.977556,2.210984 -1.517908,2.836386 1.459647,0.625387 2.024911,-0.973519 2.024911,-0.973519 z"
       id="path892"
       sodipodi:nodetypes="cssssssccssc" />
    <path
       style="fill:#a5ffb4;fill-opacity:0.903803;stroke:#000000;stroke-width:1.39843;stroke-linecap:round;stroke-opacity:0.00223712;paint-order:markers fill stroke"
       d="m 38.915973,86.352971 c -0.152577,3.932073 -0.417188,6.227263 1.489975,7.353343 1.907163,1.1261 6.70667,-1.55186 6.072193,-5.50587 -0.972804,-6.062414 -10.56626,-6.432165 -12.997544,-5.481452 -2.431285,0.950715 -2.909214,4.626742 -2.814926,7.791332 0.05968,2.00341 0.03406,3.26271 2.555233,3.54523 2.560618,0.28698 3.233347,-3.49521 0.243881,-3.84677 -2.495006,-0.0936 -2.127775,3.1661 -0.818257,-1.13355 1.845117,-5.451929 12.128225,-5.35056 11.844061,0.91269 -1.015566,2.09908 -3.117288,2.05568 -3.880168,1.28397 -0.639303,-0.71527 -0.359092,-4.51583 -0.217387,-5.209753 0.424829,-2.080363 -0.974197,-1.612781 -1.201707,-0.984604 -0.241169,0.665879 -0.275355,1.275449 -0.275355,1.275449 z"
       id="path894"
       sodipodi:nodetypes="ssssssccccsscs" />
  </g>
  <g
     inkscape:groupmode="layer"
     id="layer2"
     inkscape:label="Calque 2"
     style="display:inline">
    <path
       style="display:inline;fill:#5000c3;fill-opacity:0.975392;stroke:#000000;stroke-width:1.39843;stroke-linecap:round;stroke-opacity:0.00223712;paint-order:markers fill stroke"
       d="m 27.209143,42.11729 c 0,0 -13.151917,-19.897211 3.320869,-32.5617564 C 56.485597,-6.1011587 70.960077,29.481503 59.368928,41.54494 50.793984,54.207788 33.557888,47.636925 33.557888,47.636925 L 15.994994,72.469889 c 0,0 -2.314224,7.343818 -9.2718929,0.567074 C 1.2805191,67.735922 27.209143,42.11729 27.209143,42.11729 v 0 l 9.022487,1.457196 c 0,0 12.188202,5.482102 19.472252,-3.445569 6.307283,-7.7305 4.784086,-19.357975 -0.695193,-24.434961 C 47.016033,8.2881246 39.377923,8.8091786 31.572687,15.436527 23.551065,22.247611 25.970208,38.88908 36.23163,43.574486"
       id="path833"
       sodipodi:nodetypes="cccccscccsssc" />
    <path
       style="display:inline;fill:#5000c3;fill-opacity:0.975392;stroke:#000000;stroke-width:1.14139;stroke-linecap:round;stroke-opacity:0.00223712;paint-order:markers fill stroke"
       d="m 33.200473,41.227186 c 0,0 -12.552184,-15.525249 0.892837,-25.862001 21.184848,-12.7789314 31.067992,14.713945 21.607341,24.560076 -6.998835,10.335372 -22.069608,2.190832 -22.069608,2.190832 -7.107153,-6.159107 11.557089,7.929293 0,0 v 0 c 10.406556,5.056281 17.285554,4.369834 23.20986,-2.490323 5.147981,-6.309603 3.249064,-18.671164 -1.223102,-22.814981 -6.523575,-6.04461 -17.203624,-6.01279 -23.574217,-0.603574 -6.547221,5.55918 -3.47126,24.344167 4.904068,28.168377"
       id="path833-4"
       sodipodi:nodetypes="cccccccssc" />
  </g>
  <g
     inkscape:groupmode="layer"
     id="layer3"
     inkscape:label="Calque 3"
     style="display:inline" />
</svg>
